<svg xmlns="http://www.w3.org/2000/svg" width="24.778" height="16.526" viewBox="0 0 24.778 16.526"><defs><style>.a{fill:#f6f7eb;}</style></defs><path class="a" d="M23.677,11.568a1.125,1.125,0,0,0-.009,1.584L28.9,18.393H8.985a1.119,1.119,0,0,0,0,2.238H28.892l-5.233,5.241a1.133,1.133,0,0,0,.009,1.584,1.114,1.114,0,0,0,1.575-.009L32.335,20.3h0a1.257,1.257,0,0,0,.232-.353,1.068,1.068,0,0,0,.086-.43,1.122,1.122,0,0,0-.318-.783l-7.092-7.143A1.1,1.1,0,0,0,23.677,11.568Z" transform="translate(32.653 27.777) rotate(180)"/></svg>