<svg xmlns="http://www.w3.org/2000/svg" width="17.331" height="19.807" viewBox="0 0 17.331 19.807"><path d="M1.238,17.95a1.857,1.857,0,0,0,1.857,1.857H14.236a1.857,1.857,0,0,0,1.857-1.857v-13H1.238Zm10.522-9.9a.619.619,0,1,1,1.238,0v8.666a.619.619,0,0,1-1.238,0Zm-3.714,0a.619.619,0,1,1,1.238,0v8.666a.619.619,0,0,1-1.238,0Zm-3.714,0a.619.619,0,1,1,1.238,0v8.666a.619.619,0,0,1-1.238,0ZM16.712,1.238H12.07L11.706.515A.928.928,0,0,0,10.874,0H6.453a.918.918,0,0,0-.828.515l-.364.723H.619A.619.619,0,0,0,0,1.857V3.095a.619.619,0,0,0,.619.619H16.712a.619.619,0,0,0,.619-.619V1.857A.619.619,0,0,0,16.712,1.238Z" fill="#f6f7eb"/></svg>