<svg xmlns="http://www.w3.org/2000/svg" width="13.724" height="11.307" viewBox="0 0 13.724 11.307"><g transform="translate(-884.71 -126.846)"><path d="M8.613,8.741,3.581,13.773a.621.621,0,0,1-.879,0l-.587-.587a.621.621,0,0,1,0-.878L6.1,8.3,2.114,4.295a.621.621,0,0,1,0-.878L2.7,2.83a.621.621,0,0,1,.879,0L8.613,7.862A.621.621,0,0,1,8.613,8.741Z" transform="translate(900.367 140.801) rotate(180)" fill="#f6f7eb"/><path d="M8.613,8.741,3.581,13.773a.621.621,0,0,1-.879,0l-.587-.587a.621.621,0,0,1,0-.878L6.1,8.3,2.114,4.295a.621.621,0,0,1,0-.878L2.7,2.83a.621.621,0,0,1,.879,0L8.613,7.862A.621.621,0,0,1,8.613,8.741Z" transform="translate(893.505 140.801) rotate(180)" fill="#f6f7eb"/></g></svg>