<svg xmlns="http://www.w3.org/2000/svg" width="13.724" height="11.307" viewBox="0 0 13.724 11.307"><g transform="translate(-237 -117.346)"><path d="M8.613,8.741,3.581,13.773a.621.621,0,0,1-.879,0l-.587-.587a.621.621,0,0,1,0-.878L6.1,8.3,2.114,4.295a.621.621,0,0,1,0-.878L2.7,2.83a.621.621,0,0,1,.879,0L8.613,7.862A.621.621,0,0,1,8.613,8.741Z" transform="translate(235.067 114.698)" fill="#393e41"/><path d="M8.613,8.741,3.581,13.773a.621.621,0,0,1-.879,0l-.587-.587a.621.621,0,0,1,0-.878L6.1,8.3,2.114,4.295a.621.621,0,0,1,0-.878L2.7,2.83a.621.621,0,0,1,.879,0L8.613,7.862A.621.621,0,0,1,8.613,8.741Z" transform="translate(241.929 114.698)" fill="#393e41"/></g></svg>