<svg xmlns="http://www.w3.org/2000/svg" width="11.307" height="13.724" viewBox="0 0 11.307 13.724"><defs><style>.a{fill:#393e41;}</style></defs><g transform="translate(-1030.843 -1820)"><path class="a" d="M8.613,8.741,3.581,13.773a.621.621,0,0,1-.879,0l-.587-.587a.621.621,0,0,1,0-.878L6.1,8.3,2.114,4.295a.621.621,0,0,1,0-.878L2.7,2.83a.621.621,0,0,1,.879,0L8.613,7.862A.621.621,0,0,1,8.613,8.741Z" transform="translate(1044.798 1818.067) rotate(90)"/><path class="a" d="M8.613,8.741,3.581,13.773a.621.621,0,0,1-.879,0l-.587-.587a.621.621,0,0,1,0-.878L6.1,8.3,2.114,4.295a.621.621,0,0,1,0-.878L2.7,2.83a.621.621,0,0,1,.879,0L8.613,7.862A.621.621,0,0,1,8.613,8.741Z" transform="translate(1044.798 1824.929) rotate(90)"/></g></svg>