<svg xmlns="http://www.w3.org/2000/svg" width="13.724" height="11.307" viewBox="0 0 13.724 11.307"><defs><style>.a{fill:#33373a;}</style></defs><path class="a" d="M6.68,6.093,1.648,11.125a.621.621,0,0,1-.879,0l-.587-.587a.621.621,0,0,1,0-.878L4.169,5.654.181,1.647a.621.621,0,0,1,0-.878L.769.182a.621.621,0,0,1,.879,0L6.68,5.214A.621.621,0,0,1,6.68,6.093Z" transform="translate(13.724 11.307) rotate(180)"/><path class="a" d="M6.68,6.093,1.648,11.125a.621.621,0,0,1-.879,0l-.587-.587a.621.621,0,0,1,0-.878L4.169,5.654.181,1.647a.621.621,0,0,1,0-.878L.769.182a.621.621,0,0,1,.879,0L6.68,5.214A.621.621,0,0,1,6.68,6.093Z" transform="translate(6.862 11.307) rotate(180)"/></svg>