<svg xmlns="http://www.w3.org/2000/svg" width="77.395" height="103.193" viewBox="0 0 77.395 103.193"><defs><style>.a{fill:#c6c6c6;}</style></defs><path class="a" d="M77.394,24.577V25.8H51.6V0h1.221a4.837,4.837,0,0,1,3.42,1.417l19.74,19.74A4.838,4.838,0,0,1,77.394,24.577ZM49.984,32.248a4.851,4.851,0,0,1-4.837-4.837V0H4.837A4.837,4.837,0,0,0,0,4.837V98.355a4.837,4.837,0,0,0,4.837,4.837h67.72a4.837,4.837,0,0,0,4.837-4.837V32.248Zm-27.3,3.225a9.674,9.674,0,1,1-9.674,9.674A9.674,9.674,0,0,1,22.683,35.472ZM64.605,83.844h-51.6l.1-9.772,7.964-7.964a2.3,2.3,0,0,1,3.323.1l7.964,7.964L53.221,53.306a2.419,2.419,0,0,1,3.42,0l7.964,7.964Z"/></svg>