<svg xmlns="http://www.w3.org/2000/svg" width="18.181" height="16.966" viewBox="0 0 18.181 16.966"><defs><style>.a{fill:#393e41;}</style></defs><path class="a" d="M22.359,25.025V37.142H23.57a.608.608,0,0,1,.607.607v1.211a.608.608,0,0,1-.607.607H17.513a.608.608,0,0,1-.607-.607V37.749a.608.608,0,0,1,.607-.607h1.211V32.3H11.453v4.846h1.211a.608.608,0,0,1,.607.607v1.211a.608.608,0,0,1-.607.607H6.607A.608.608,0,0,1,6,38.959V37.749a.608.608,0,0,1,.607-.607H7.818V25.025H6.607a.605.605,0,0,1-.607-.6V23.207a.608.608,0,0,1,.607-.607h6.06a.608.608,0,0,1,.607.607v1.211a.608.608,0,0,1-.607.607H11.453v4.846h7.271V25.025H17.513a.608.608,0,0,1-.607-.607V23.207a.608.608,0,0,1,.607-.607h6.06a.608.608,0,0,1,.607.607v1.211a.608.608,0,0,1-.607.607Z" transform="translate(-6 -22.6)"/></svg>