<svg xmlns="http://www.w3.org/2000/svg" width="18" height="18" viewBox="0 0 18 18"><defs><style>.a{fill:#393e41;}</style></defs><path class="a" d="M17.3,2H4.7A2.7,2.7,0,0,0,2,4.7V17.3A2.7,2.7,0,0,0,4.7,20H17.3A2.7,2.7,0,0,0,20,17.3V4.7A2.7,2.7,0,0,0,17.3,2ZM9.2,6.5A1.8,1.8,0,1,1,7.4,8.3,1.8,1.8,0,0,1,9.2,6.5ZM6.941,18.2H4.7a.9.9,0,0,1-.846-.639l2.781-3.339a.972.972,0,0,1,.711-.324.9.9,0,0,1,.7.36l.9,1.2ZM18.2,17.3a.9.9,0,0,1-.9.9H9.2l4.923-6.768a.9.9,0,0,1,1.368-.108L18.2,14.069Z" transform="translate(-2 -2)"/></svg>