<svg xmlns="http://www.w3.org/2000/svg" width="30.958" height="27.72" viewBox="0 0 30.958 27.72"><path d="M33.463,14.877l-.009-.073a.914.914,0,0,0-.091-.261L28.8,7.2s-.582-.72-.72-.72H8.64L2.794,14.294l-.069.072-.009.034a1.282,1.282,0,0,0-.121.252l-.024.07a1.134,1.134,0,0,0,.009.684l.027.078a1.213,1.213,0,0,0,.135.253l14.134,17.9.029.041a1.223,1.223,0,0,0,.269.252l.082.051a1.455,1.455,0,0,0,.287.135l.08.027a1.389,1.389,0,0,0,.767,0l.1-.034a1.4,1.4,0,0,0,.279-.137l.063-.04a1.121,1.121,0,0,0,.244-.226L33.226,15.785a1.258,1.258,0,0,0,.238-.569l.011-.093.006-.073-.017-.173ZM25.874,14.4l2.015-3.645L29.9,14.4Zm-1.208,2.16h4.779L21.479,26.651Zm-1.182-3.253L20.574,9.36h5.09Zm-9.32,3.253h7.674L18,28.711Zm.761-2.16L18,10.227,21.075,14.4h-6.15Zm-2.166-1.42L11.426,9.36h4Zm1.763,13.671L6.556,16.56h4.78ZM9.119,10.78l1.334,3.62h-4l2.668-3.62Z" transform="translate(-2.522 -6.48)" fill="#f6f7eb"/></svg>