<svg xmlns="http://www.w3.org/2000/svg" width="31.25" height="36.18" viewBox="0 0 31.25 36.18"><g transform="translate(-216.817 -230.733)"><path d="M283.448,257.752a5.819,5.819,0,0,1,3.392-1.823,5.518,5.518,0,0,1,1.737,10.9,5.472,5.472,0,0,1-6.455-5.154,8,8,0,0,0-.9-3.47,4.591,4.591,0,0,0-3.851-2.573c-.465-.033-.548-.317-.675-.629q-2.266-5.6-4.53-11.2c-.9-2.236-1.788-4.481-2.727-6.7a4.84,4.84,0,0,1-.2-3.268,10.647,10.647,0,0,1,1.4-3.1Zm4.192.16a3.485,3.485,0,1,0,3.463,3.476A3.464,3.464,0,0,0,287.64,257.912Zm-10.1-8.158a1.049,1.049,0,1,0,1.03,1.067A1.092,1.092,0,0,0,277.539,249.754Z" transform="translate(-45.085)" fill="#e94f37"/><path d="M226.51,392.443l2.7-5.654,1.675,3.935a6.485,6.485,0,0,0-3.046,5.622,5.425,5.425,0,0,1-5.336,5.271A5.5,5.5,0,0,1,216.895,397a5.523,5.523,0,0,1,9.121-5.02C226.166,392.116,226.312,392.258,226.51,392.443Zm-4.2,7.147a3.485,3.485,0,1,0,.076-6.97,3.485,3.485,0,1,0-.076,6.97Z" transform="translate(0 -134.707)" fill="#e94f37"/><path d="M342.217,231.07a7.814,7.814,0,0,1,1.567,4.887,3.225,3.225,0,0,1-.235.919q-2.459,6.108-4.935,12.209c-.049.122-.116.237-.215.436-.125-.214-.22-.354-.292-.5-.668-1.4-1.328-2.795-2-4.188a1.006,1.006,0,0,1-.028-.963q2.97-6.22,5.911-12.455A3.211,3.211,0,0,1,342.217,231.07Z" transform="translate(-102.852 -0.291)" fill="#e94f37"/></g></svg>