<svg xmlns="http://www.w3.org/2000/svg" width="159.565" height="31.948" viewBox="0 0 159.565 31.948"><g transform="translate(-24.435 -19.526)"><text transform="translate(68 44)" fill="#f6f7eb" font-size="24" font-family="Roster-Light, Roster" font-weight="300"><tspan x="0" y="0">snippets</tspan></text><g transform="translate(-192.383 -211.207)"><path d="M281.764,254.591a5.139,5.139,0,0,1,3-1.61,4.872,4.872,0,0,1,1.534,9.622,4.832,4.832,0,0,1-5.7-4.551,7.067,7.067,0,0,0-.794-3.064,4.055,4.055,0,0,0-3.4-2.272c-.41-.029-.484-.28-.6-.555q-2-4.945-4-9.891c-.8-1.974-1.579-3.957-2.408-5.918a4.274,4.274,0,0,1-.179-2.885,9.4,9.4,0,0,1,1.235-2.734Zm3.7.141a3.077,3.077,0,1,0,3.058,3.07A3.059,3.059,0,0,0,285.466,254.732Zm-8.92-7.2a.926.926,0,1,0,.909.942A.965.965,0,0,0,276.546,247.529Z" transform="translate(-45.921 0)" fill="#f6f7eb"/><path d="M225.376,391.782l2.383-4.993,1.479,3.475a5.727,5.727,0,0,0-2.69,4.965,4.791,4.791,0,0,1-4.712,4.655,4.856,4.856,0,0,1-4.951-4.077,4.878,4.878,0,0,1,8.055-4.433C225.073,391.494,225.2,391.619,225.376,391.782Zm-3.71,6.311a3.078,3.078,0,1,0,.067-6.155,3.078,3.078,0,1,0-.067,6.155Z" transform="translate(0 -137.206)" fill="#f6f7eb"/><path d="M341.486,231.07a6.9,6.9,0,0,1,1.383,4.316,2.849,2.849,0,0,1-.207.812q-2.171,5.394-4.358,10.781c-.044.108-.1.209-.19.385-.111-.189-.194-.313-.258-.446-.59-1.232-1.172-2.468-1.766-3.7a.888.888,0,0,1-.025-.851q2.623-5.493,5.22-11A2.841,2.841,0,0,1,341.486,231.07Z" transform="translate(-104.758 -0.296)" fill="#f6f7eb"/></g></g></svg>